# xmcd
#
# Track frame offsets: 
#        150
#        13000
#        30830
#        46985
#        62015
#        79805
#        94632
#        112757
#        131050
#        149107
#        163910
#        179117
#        205077
#
# Disc length: 2846 seconds
#
# Revision: 2
# Processed by: cddbd v1.5.2PL0 Copyright (c) Steve Scherf et al.
# Submitted via: ExactAudioCopy v1.0b2
#
DISCID=b10b1c0d
DTITLE=The Underdogs - Unleashed
DYEAR=1999
DGENRE=Blues
TTITLE0=One Kiss
TTITLE1=Fact of the Matter
TTITLE2=Heartbreak Hotel
TTITLE3=Rollin'
TTITLE4=I'm Ready
TTITLE5=Bayou Country
TTITLE6=Cry To Me
TTITLE7=Preachin' to the Choir
TTITLE8=Another Day
TTITLE9=Payday Blues
TTITLE10=Florida Bound
TTITLE11=Bye-Bye
TTITLE12=Burning Kiss
EXTD=
EXTT0=
EXTT1=
EXTT2=
EXTT3=
EXTT4=
EXTT5=
EXTT6=
EXTT7=
EXTT8=
EXTT9=
EXTT10=
EXTT11=
EXTT12=
PLAYORDER=
